<?xml version="1.0" encoding="UTF-8"?>
<svg xmlns="http://www.w3.org/2000/svg" xmlns:xlink="http://www.w3.org/1999/xlink" width="61px" height="64px" viewBox="0 0 61 63" version="1.1">
<g id="surface1">
<path style=" stroke:none;fill-rule:nonzero;fill:rgb(0%,70.196078%,49.411765%);fill-opacity:1;" d="M 22.734375 0.0898438 C 22.625 0.144531 22.433594 0.289062 22.308594 0.429688 C 21.625 1.152344 21.320312 2.472656 20.738281 7.257812 C 20.585938 8.535156 20.441406 9.585938 20.425781 9.609375 C 20.40625 9.632812 19.84375 9.410156 19.175781 9.125 C 13.96875 6.90625 12.933594 6.496094 10.5625 5.730469 C 9.871094 5.503906 8.816406 5.265625 8.496094 5.265625 C 8.257812 5.265625 7.957031 5.390625 7.875 5.523438 C 7.769531 5.683594 7.792969 6.226562 7.917969 6.675781 C 8.371094 8.273438 10.121094 12.078125 11.421875 14.296875 C 12.007812 15.296875 13 16.671875 13 16.484375 C 13 16.453125 12.789062 16.085938 12.53125 15.660156 C 11.121094 13.328125 10.429688 11.75 9.992188 9.839844 C 9.640625 8.3125 9.574219 7.300781 9.796875 7 C 9.929688 6.816406 10.226562 6.796875 10.628906 6.945312 C 11.460938 7.238281 14.753906 8.785156 16.558594 9.730469 C 18.40625 10.695312 20.070312 11.710938 20.070312 11.871094 C 20.070312 11.914062 19.996094 12.25 19.902344 12.609375 C 19.507812 14.121094 18.984375 14.921875 17.753906 15.921875 C 17.078125 16.46875 16.679688 16.75 14.363281 18.292969 C 10.617188 20.796875 9.332031 21.753906 7.921875 23.109375 C 6.5625 24.417969 5.589844 25.785156 5.011719 27.203125 C 4.398438 28.71875 4.222656 29.777344 4.132812 32.582031 C 4.078125 34.238281 4.003906 35.019531 3.808594 35.910156 C 3.371094 37.902344 2.402344 40.285156 1.316406 42.007812 C 0.429688 43.414062 0.328125 43.59375 0.183594 43.953125 C -0.125 44.726562 -0.0390625 45.417969 0.496094 46.492188 C 1.015625 47.539062 1.890625 48.730469 2.808594 49.640625 C 3.664062 50.488281 4.269531 50.871094 5.566406 51.402344 C 6.320312 51.710938 6.578125 51.875 7.445312 52.613281 C 8.863281 53.820312 9.972656 54.363281 11.605469 54.667969 C 12.285156 54.796875 14.632812 54.796875 15.589844 54.667969 C 17.308594 54.4375 19.074219 54.039062 20.519531 53.546875 C 20.996094 53.382812 21.425781 53.238281 21.46875 53.226562 C 21.640625 53.167969 23.851562 56.242188 26.386719 60.050781 C 28.070312 62.582031 28.402344 63.054688 28.46875 62.988281 C 28.523438 62.9375 28.277344 62.359375 27.761719 61.328125 C 26.316406 58.4375 24.472656 55.515625 22.644531 53.21875 L 22.363281 52.867188 L 23.117188 52.480469 C 24.085938 51.988281 24.667969 51.628906 25.445312 51.054688 C 25.785156 50.804688 26.074219 50.597656 26.097656 50.597656 C 26.152344 50.597656 27.761719 51.773438 28.6875 52.492188 C 31.195312 54.441406 32.332031 55.441406 38.445312 61.070312 C 40.320312 62.804688 40.847656 63.195312 40.382812 62.519531 C 39.714844 61.546875 37.488281 59.097656 35.429688 57.070312 C 32.742188 54.410156 30.574219 52.621094 27.582031 50.566406 C 27.171875 50.292969 26.816406 50.054688 26.785156 50.039062 C 26.746094 50.03125 26.910156 49.828125 27.171875 49.554688 C 27.632812 49.085938 27.929688 48.703125 27.875 48.648438 C 27.820312 48.59375 27.636719 48.6875 26.894531 49.167969 L 26.136719 49.65625 L 25.558594 49.308594 C 23.726562 48.214844 20.902344 46.761719 20.34375 46.628906 L 20.195312 46.59375 L 20.296875 46.703125 C 20.441406 46.867188 20.851562 47.148438 22.289062 48.0625 C 23.957031 49.121094 25.398438 50.070312 25.398438 50.109375 C 25.398438 50.164062 23.652344 51.117188 22.675781 51.601562 C 22.148438 51.863281 21.710938 52.074219 21.699219 52.074219 C 21.691406 52.074219 21.351562 51.71875 20.941406 51.28125 C 19.929688 50.191406 18.515625 48.921875 18.324219 48.921875 C 18.160156 48.921875 18.34375 49.183594 19.820312 51.035156 C 20.410156 51.773438 20.886719 52.394531 20.882812 52.40625 C 20.867188 52.457031 19.445312 53 18.652344 53.25 C 16.257812 54.015625 14.144531 54.140625 12.027344 53.628906 C 9.382812 52.988281 5.464844 50.960938 3.882812 49.414062 C 3.316406 48.859375 3.164062 48.46875 3.285156 47.890625 C 3.363281 47.535156 3.761719 46.707031 4.34375 45.699219 C 5.503906 43.679688 5.734375 43.066406 5.5 42.617188 C 5.324219 42.277344 4.902344 42.21875 3.695312 42.359375 C 2.867188 42.453125 2.457031 42.4375 2.355469 42.296875 C 2.160156 42.046875 2.390625 41.519531 3.402344 39.90625 C 4.671875 37.867188 5.234375 36.796875 5.566406 35.78125 C 5.808594 35.042969 5.851562 34.78125 5.851562 33.960938 C 5.851562 33.125 5.8125 32.859375 5.523438 31.648438 C 5.269531 30.574219 5.179688 30.039062 5.179688 29.609375 C 5.179688 28.085938 6.050781 26.476562 8.167969 24.0625 C 8.824219 23.320312 10.425781 21.753906 11.222656 21.085938 C 13.875 18.839844 17.007812 17.152344 19.726562 16.492188 C 20.632812 16.277344 21.402344 16.152344 22.886719 15.996094 C 25.066406 15.765625 25.898438 15.621094 26.792969 15.316406 C 27.820312 14.96875 28.257812 14.730469 28.773438 14.257812 C 29.191406 13.875 29.449219 13.480469 29.617188 12.972656 C 29.738281 12.609375 29.753906 12.507812 29.753906 11.789062 C 29.757812 10.863281 29.664062 10.324219 29.300781 9.253906 C 28.894531 8.050781 28.339844 7 27.183594 5.28125 C 26.402344 4.109375 26.273438 3.898438 26.320312 3.847656 C 26.445312 3.726562 28 4.792969 34.03125 9.167969 C 42.722656 15.464844 45.59375 17.730469 48.554688 20.597656 C 50.695312 22.679688 52.203125 24.40625 54.320312 27.21875 C 55.183594 28.363281 55.742188 29.132812 58.097656 32.433594 C 59.707031 34.695312 60.691406 35.984375 60.914062 36.117188 C 61.019531 36.1875 61.023438 36.179688 60.988281 36.019531 C 60.945312 35.777344 60.203125 34.320312 59.574219 33.246094 C 55.546875 26.316406 49.710938 19.378906 43.453125 14.082031 C 40.449219 11.535156 38.210938 9.894531 30.28125 4.417969 C 28.925781 3.480469 27.234375 2.304688 26.519531 1.800781 C 24.5625 0.417969 23.890625 0.0546875 23.257812 0.015625 C 23.015625 0 22.886719 0.0195312 22.734375 0.0898438 Z M 22.734375 0.0898438 "/>
<path style=" stroke:none;fill-rule:nonzero;fill:rgb(0%,70.196078%,49.411765%);fill-opacity:1;" d="M 13.074219 29.480469 C 12.339844 29.546875 11.261719 29.71875 10.734375 29.851562 C 9.980469 30.039062 9.667969 30.25 9.738281 30.527344 C 9.757812 30.59375 9.921875 30.835938 10.105469 31.0625 C 10.535156 31.59375 10.800781 31.976562 11.261719 32.699219 C 11.707031 33.425781 12.066406 33.8125 12.4375 33.992188 C 13.222656 34.371094 14.546875 34.054688 15.890625 33.164062 C 16.699219 32.632812 17.15625 32.117188 17.652344 31.171875 C 17.984375 30.546875 18.199219 30.359375 18.886719 30.101562 L 19.179688 29.992188 L 18.992188 29.933594 C 18.722656 29.855469 17.421875 29.644531 16.660156 29.554688 C 15.882812 29.460938 13.769531 29.421875 13.074219 29.480469 Z M 13.074219 29.480469 "/>
<path style=" stroke:none;fill-rule:nonzero;fill:rgb(0%,70.196078%,49.411765%);fill-opacity:1;" d="M 20.542969 44.566406 C 20.679688 44.679688 21.242188 44.9375 22.136719 45.292969 C 24.339844 46.15625 26.28125 47.117188 28.199219 48.265625 C 29.6875 49.160156 30.753906 49.878906 34.117188 52.246094 C 36.261719 53.757812 36.601562 53.988281 36.84375 54.109375 C 37.152344 54.269531 37.015625 54.070312 36.371094 53.441406 C 35.585938 52.679688 35.257812 52.386719 34.226562 51.542969 C 30.882812 48.789062 28.179688 47.097656 25.125 45.847656 C 23.632812 45.230469 21.476562 44.578125 20.75 44.511719 C 20.460938 44.488281 20.449219 44.488281 20.542969 44.566406 Z M 20.542969 44.566406 "/>
</g>
</svg>
